<svg xmlns="http://www.w3.org/2000/svg" xmlns:xlink="http://www.w3.org/1999/xlink" style="isolation:isolate" viewBox="0 0 200 200" width="200pt" height="200pt"><defs><clipPath id="_clipPath_GdY4QRtkzsPZJQki73DfTvfHtOy1sdxu"><rect width="200" height="200"/></clipPath></defs><g clip-path="url(#_clipPath_GdY4QRtkzsPZJQki73DfTvfHtOy1sdxu)"><rect width="200" height="200" style="fill:rgb(18,18,18)" fill-opacity="0"/><g/><g/><g/><g/><g/><g/><g><g><path d=" M 104.965 159.483 C 109.166 162.462 109.108 167.238 104.99 170.171 C 104.983 170.177 104.973 170.183 104.965 170.189 L 100.24 173.536 C 96.073 176.488 89.292 176.488 85.126 173.536 C 80.958 170.585 80.958 165.782 85.126 162.83 L 87.735 160.982 C 88.426 160.492 89.618 160.818 89.654 161.51 C 89.699 162.393 89.923 163.28 90.335 164.136 C 90.475 164.426 90.375 164.747 90.069 164.963 L 89.149 165.615 C 87.178 167.011 87.116 169.284 89.068 170.693 C 91.038 172.117 94.277 172.125 96.262 170.719 L 100.987 167.372 C 102.97 165.968 102.961 163.699 100.987 162.301 C 100.727 162.117 100.465 161.974 100.26 161.874 C 99.967 161.731 99.785 161.498 99.772 161.246 C 99.744 160.72 100.007 160.178 100.594 159.762 L 102.075 158.713 C 102.463 158.438 103.072 158.404 103.522 158.627 C 104.037 158.882 104.52 159.168 104.965 159.483 L 104.965 159.483 Z  M 114.874 152.464 C 110.708 149.512 103.927 149.512 99.76 152.464 L 95.035 155.811 C 95.027 155.817 95.017 155.823 95.01 155.829 C 90.892 158.762 90.834 163.538 95.035 166.517 C 95.48 166.832 95.962 167.118 96.478 167.373 C 96.928 167.596 97.537 167.562 97.925 167.287 L 99.406 166.238 C 99.993 165.822 100.256 165.28 100.228 164.754 C 100.214 164.502 100.033 164.269 99.74 164.126 C 99.535 164.026 99.273 163.883 99.013 163.699 C 97.039 162.301 97.03 160.032 99.013 158.628 L 103.738 155.281 C 105.723 153.875 108.962 153.883 110.932 155.307 C 112.883 156.716 112.822 158.989 110.851 160.385 L 109.931 161.036 C 109.625 161.253 109.525 161.574 109.665 161.864 C 110.077 162.72 110.301 163.607 110.346 164.49 C 110.382 165.182 111.573 165.508 112.265 165.018 L 114.874 163.17 C 119.042 160.218 119.042 155.415 114.874 152.464 L 114.874 152.464 Z " fill="rgb(255,255,255)"/><path d=" M 75 188 L 159 188 L 175 138 L 75 138 L 75 138" fill="none" vector-effect="non-scaling-stroke" stroke-width="3" stroke="rgb(255,255,255)" stroke-linejoin="miter" stroke-linecap="square" stroke-miterlimit="3"/><path d=" M 125 188 L 41 188 L 25 138 L 125 138 L 125 138" fill="none" vector-effect="non-scaling-stroke" stroke-width="3" stroke="rgb(255,255,255)" stroke-linejoin="miter" stroke-linecap="square" stroke-miterlimit="3"/><path d=" M 25 137 L 31 128 L 122 128" fill="none" vector-effect="non-scaling-stroke" stroke-width="3" stroke="rgb(255,255,255)" stroke-linejoin="miter" stroke-linecap="round" stroke-miterlimit="3"/><path d=" M 175 137 L 169 128 L 78 128" fill="none" vector-effect="non-scaling-stroke" stroke-width="3" stroke="rgb(255,255,255)" stroke-linejoin="miter" stroke-linecap="round" stroke-miterlimit="3"/><path d=" M 75 98 L 159 98 L 175 48 L 75 48 L 75 48" fill="none" vector-effect="non-scaling-stroke" stroke-width="3" stroke="rgb(255,255,255)" stroke-linejoin="miter" stroke-linecap="square" stroke-miterlimit="3"/><path d=" M 125 98 L 41 98 L 25 48 L 125 48 L 125 48" fill="none" vector-effect="non-scaling-stroke" stroke-width="3" stroke="rgb(255,255,255)" stroke-linejoin="miter" stroke-linecap="square" stroke-miterlimit="3"/><path d=" M 40.5 127 L 62.5 99 L 117.5 99" fill="none" vector-effect="non-scaling-stroke" stroke-width="3" stroke="rgb(255,255,255)" stroke-linejoin="miter" stroke-linecap="round" stroke-miterlimit="3"/><path d=" M 159.5 127 L 137.5 99 L 82.5 99" fill="none" vector-effect="non-scaling-stroke" stroke-width="3" stroke="rgb(255,255,255)" stroke-linejoin="miter" stroke-linecap="round" stroke-miterlimit="3"/><path d=" M 40.5 127 L 62.5 99 L 117.5 99" fill="none" vector-effect="non-scaling-stroke" stroke-width="3" stroke="rgb(255,255,255)" stroke-linejoin="miter" stroke-linecap="round" stroke-miterlimit="3"/><path d=" M 159.5 127 L 137.5 99 L 82.5 99" fill="none" vector-effect="non-scaling-stroke" stroke-width="3" stroke="rgb(255,255,255)" stroke-linejoin="miter" stroke-linecap="round" stroke-miterlimit="3"/><line x1="158.5" y1="99" x2="152.5" y2="116" vector-effect="non-scaling-stroke" stroke-width="3" stroke="rgb(255,255,255)" stroke-linejoin="miter" stroke-linecap="round" stroke-miterlimit="3"/><line x1="41.3" y1="99" x2="47.3" y2="116" vector-effect="non-scaling-stroke" stroke-width="3" stroke="rgb(255,255,255)" stroke-linejoin="miter" stroke-linecap="round" stroke-miterlimit="3"/><path d=" M 24 47 L 41.3 12 L 158.5 12 L 176 47" fill="none" vector-effect="non-scaling-stroke" stroke-width="3" stroke="rgb(255,255,255)" stroke-linejoin="miter" stroke-linecap="round" stroke-miterlimit="3"/><path d=" M 65 64.5 Q 105 74.5 135 64.5" fill="none" vector-effect="non-scaling-stroke" stroke-width="3" stroke="rgb(255,255,255)" stroke-linejoin="miter" stroke-linecap="round" stroke-miterlimit="3"/><path d=" M 135 64.5 L 135 76.5 Q 105 86.5 65 76.5 L 65 64.5" fill="none" vector-effect="non-scaling-stroke" stroke-width="3" stroke="rgb(255,255,255)" stroke-linejoin="miter" stroke-linecap="round" stroke-miterlimit="3"/><line x1="54" y1="128" x2="76" y2="99" vector-effect="non-scaling-stroke" stroke-width="2" stroke="rgb(255,255,255)" stroke-linejoin="miter" stroke-linecap="round" stroke-miterlimit="3"/><line x1="146" y1="128" x2="124" y2="99" vector-effect="non-scaling-stroke" stroke-width="2" stroke="rgb(255,255,255)" stroke-linejoin="miter" stroke-linecap="round" stroke-miterlimit="3"/></g></g></g></svg>